# xmcd
#
# Track frame offsets: 
#        150
#        17217
#        38762
#        50607
#        67909
#        91245
#        105913
#        120354
#        136465
#        152213
#        169450
#        189084
#        204313
#        224684
#        238754
#        258441
#        275572
#        292920
#        307252
#        317867
#
# Disc length: 4430 seconds
#
# Revision: 1
# Processed by: cddbd v1.5.2PL0 Copyright (c) Steve Scherf et al.
# Submitted via: ExactAudioCopyFreeDBPlugin 1.0
#
DISCID=24114c14
DTITLE=The Mavericks - The Definitive Collection
DYEAR=2004
DGENRE=Country
TTITLE0=This Broken Heart
TTITLE1=From Hell to Paradise
TTITLE2=Hey Good Lookin'
TTITLE3=What a Crying Shame
TTITLE4=I Should Have Been True
TTITLE5=There Goes My Heart
TTITLE6=O What A Thrill
TTITLE7=All That Heaven Would Allow
TTITLE8=Missing You
TTITLE9=Here Comes The Rain
TTITLE10=All You Ever Do Is Bring Me Down (featuring Flaco Jemenez)
TTITLE11=The Writing On The Wall
TTITLE12=Blue Moon
TTITLE13=I Don't Care (If You Don't Love Me Anymore) (Previously unrel
TTITLE13=eased on U.S. album)
TTITLE14=Dance The Night Away
TTITLE15=Dream River
TTITLE16=To Be With You
TTITLE17=Rancho Grande (Live) (Previously unreleased in the U.S.)
TTITLE18=Think Of Me (When You're Lonely)
TTITLE19=Here Comes My Baby
EXTD=
EXTT0=
EXTT1=
EXTT2=
EXTT3=
EXTT4=
EXTT5=
EXTT6=
EXTT7=
EXTT8=
EXTT9=
EXTT10=
EXTT11=
EXTT12=
EXTT13=
EXTT14=
EXTT15=
EXTT16=
EXTT17=
EXTT18=
EXTT19=
PLAYORDER=
